<svg version="1.2" xmlns="http://www.w3.org/2000/svg" viewBox="136 283 640 640" width="60" height="60"><style>.a{fill:#191919}</style><path class="a" d="m724.5 310.9c-8.8 6.5-31.5 23-50.5 36.6-19 13.7-46.9 33.7-62 44.5-15.1 10.8-51.6 36.9-81 58-29.4 21.1-58.4 41.8-64.5 46.1-6.1 4.3-27.4 19.6-47.5 33.9-20.1 14.4-38.4 28-40.8 30.3-2.4 2.3-6 6.9-8.2 10.2-2.1 3.3-5.1 9.6-6.6 14-2.1 6.3-2.7 9.9-2.8 17 0 6.6 0.5 10.8 2.1 16 1.2 3.9 4 9.9 6.1 13.5 2.1 3.6 8.8 14.6 14.9 24.5l11 18c3.5-11.6 6.3-18.6 8.5-23 2.2-4.4 5.8-10.5 8.1-13.5 2.3-3 6.2-7.5 8.7-10 2.5-2.5 9.2-7.9 15-12.1 5.8-4.1 20.2-14.5 32-23 11.8-8.5 23.7-17.2 26.5-19.2 2.7-2 5.3-3.6 5.7-3.7 0.5 0 0.1 1.5-0.8 3.3-0.9 1.7-8.2 14.7-16.2 28.7-7.9 14-17.3 30.5-20.7 36.5-3.4 6-11.9 20.9-18.7 33-6.9 12.1-17.8 31.5-24.3 43-6.5 11.5-19.1 33.8-28 49.5-8.9 15.7-17.3 31.4-18.8 35-1.5 3.6-3.4 9-4.3 12-0.8 3-1.7 9.8-2.1 15-0.4 6-0.1 12.4 0.7 17.5 0.7 4.4 2.3 10.9 3.7 14.5 1.3 3.6 4.2 9.6 6.3 13.5 2.1 3.9 8.1 14.1 13.4 22.8 9.2 15.1 9.7 15.6 11 13.5 0.8-1.3 7-12.2 13.8-24.3 6.9-12.1 15-26.5 18-32 3-5.5 11.5-20.6 18.8-33.5 7.3-12.9 17-30 21.5-38 4.5-8 16.6-29.6 27-48 10.3-18.4 27-48.1 37-66 10-17.9 25.8-46 35-62.5 9.2-16.5 19.3-34.5 22.5-40 3.2-5.5 10.9-19.2 17.2-30.5 6.3-11.3 20.8-37.1 32.3-57.5 11.4-20.4 23.6-41.9 27-48 3.4-6 10.5-18.6 15.8-28 5.2-9.4 19.4-34.5 31.4-56 12.1-21.4 22.5-40 23-41.2 0.5-1.3 0.7-2.3 0.4-2.2-0.3 0-7.8 5.3-16.6 11.8zm-552.2 214.3c0.2 0.7 6.3 11.2 13.4 23.3 7.1 12.1 17.3 29.2 22.5 38 5.2 8.8 19.2 32.4 31 52.5 11.8 20.1 32.1 54.5 45 76.5 13 22 28 47.5 33.4 56.7 5.5 9.2 10.1 16.8 10.4 16.7 0.3 0 4.1-6.4 8.4-14.2 4.4-7.8 10.8-19 14.3-24.9 3.5-6 7.5-14.3 8.9-18.5 1.5-4.4 2.8-11.1 3.1-15.3 0.3-5.3-0.1-10.1-1.5-16.5-1.1-5-3.3-11.9-4.9-15.5-1.7-3.6-14.4-25.6-28.5-49-14-23.4-29.4-49.2-34.3-57.5-4.9-8.2-11.8-19.5-15.4-24.9-4.3-6.5-8.7-11.7-12.6-15-3.3-2.7-8.5-6.1-11.5-7.4-3-1.4-7.7-3.2-10.5-4-3.8-1.2-12.8-1.6-38.3-1.9-27.5-0.4-33.3-0.2-32.9 0.9z"/></svg>
